<svg width="617" height="316" viewBox="0 0 617 316" fill="none" xmlns="http://www.w3.org/2000/svg">
<rect width="617" height="316" rx="20" fill="#1A1A1A"/>
<path d="M263.575 33.3374V50H260.487L253.504 38.6597L252.369 36.792L251.808 35.8643L251.246 34.9365H251.197L251.21 35.5591L251.222 36.1938V37.439V50H249.342V33.3374H252.418L258.509 43.2739L260.096 45.8862L260.89 47.1802L261.671 48.4863H261.72L261.708 47.8638L261.695 47.229V45.9839V33.3374H263.575ZM272.485 38.1592C274.642 38.1592 276.042 38.5335 276.685 39.2822C277.328 40.0309 277.649 41.6585 277.649 44.165C277.649 46.6715 277.328 48.2992 276.685 49.0479C276.042 49.7965 274.642 50.1709 272.485 50.1709C270.337 50.1709 268.941 49.7965 268.298 49.0479C267.655 48.2992 267.334 46.6715 267.334 44.165C267.334 41.6585 267.655 40.0309 268.298 39.2822C268.941 38.5335 270.337 38.1592 272.485 38.1592ZM272.485 39.5752C270.972 39.5752 270.032 39.8234 269.666 40.3198C269.307 40.8081 269.128 42.0898 269.128 44.165C269.128 46.2402 269.307 47.526 269.666 48.0225C270.032 48.5107 270.972 48.7549 272.485 48.7549C274.007 48.7549 274.947 48.5107 275.305 48.0225C275.671 47.526 275.855 46.2402 275.855 44.165C275.855 42.0898 275.671 40.8081 275.305 40.3198C274.947 39.8234 274.007 39.5752 272.485 39.5752ZM281.481 38.3301H283.19L283.019 39.6729L283.056 39.7095C283.731 38.6108 284.846 38.0615 286.4 38.0615C288.549 38.0615 289.623 39.1683 289.623 41.3818L289.611 42.1875H287.926L287.963 41.8945C287.987 41.5853 288 41.3778 288 41.272C288 40.0757 287.349 39.4775 286.046 39.4775C284.142 39.4775 283.19 40.6535 283.19 43.0054V50H281.481V38.3301ZM292.271 38.3301H293.98L293.943 40.0879L293.98 40.1245C294.639 38.8143 295.909 38.1592 297.789 38.1592C299.766 38.1592 300.967 38.8143 301.39 40.1245H301.439C302.171 38.8143 303.51 38.1592 305.455 38.1592C308.205 38.1592 309.581 39.563 309.581 42.3706V50H307.872V42.2119C307.872 41.1865 307.689 40.4907 307.322 40.1245C306.956 39.7583 306.264 39.5752 305.247 39.5752C303.896 39.5752 302.981 39.8315 302.501 40.3442C302.02 40.8488 301.78 41.8172 301.78 43.2495V50H300.071V42.3706L300.047 41.8335C300.047 40.328 299.188 39.5752 297.471 39.5752C295.144 39.5752 293.98 40.8407 293.98 43.3716V50H292.271V38.3301ZM315.708 41.6016H314.011C314.011 40.2425 314.316 39.3311 314.926 38.8672C315.545 38.3952 316.749 38.1592 318.54 38.1592C320.485 38.1592 321.799 38.4481 322.482 39.0259C323.166 39.5955 323.508 40.686 323.508 42.2974V50H321.799L321.933 48.7427L321.897 48.7305C321.245 49.6908 319.923 50.1709 317.929 50.1709C314.983 50.1709 313.51 48.9868 313.51 46.6187C313.51 45.2108 313.84 44.2383 314.499 43.7012C315.158 43.1641 316.35 42.8955 318.076 42.8955C320.126 42.8955 321.355 43.2983 321.762 44.104L321.799 44.0918V42.6758C321.799 41.3411 321.616 40.4785 321.25 40.0879C320.883 39.6891 320.082 39.4897 318.845 39.4897C316.745 39.4897 315.695 40.0798 315.695 41.2598C315.695 41.3167 315.699 41.4307 315.708 41.6016ZM318.454 44.2261C317.144 44.2261 316.289 44.3644 315.891 44.6411C315.5 44.9178 315.305 45.5119 315.305 46.4233C315.305 47.3674 315.5 47.994 315.891 48.3032C316.281 48.6043 317.075 48.7549 318.271 48.7549C320.68 48.7549 321.884 48.0225 321.884 46.5576C321.884 45.638 321.648 45.0195 321.176 44.7021C320.712 44.3848 319.805 44.2261 318.454 44.2261ZM329.378 33.3374V50H327.669V33.3374H329.378ZM364.044 33.3374L358.795 50H355.939L352.436 38.0005L351.996 36.499C351.972 36.4176 351.903 36.1694 351.789 35.7544L351.569 34.9976H351.532L351.325 35.7544L351.105 36.5112L350.653 38.0249L347.089 50H344.281L339.167 33.3374H341.095L344.684 45.3125L345.172 46.936C345.213 47.0662 345.294 47.3348 345.417 47.7417L345.648 48.5596H345.685L345.917 47.7417L346.149 46.936L346.625 45.3247L350.165 33.3374H352.948L356.464 45.3369L356.94 46.936L357.16 47.7539L357.392 48.5596H357.428L357.672 47.7417L357.917 46.9238L358.417 45.2881L362.079 33.3374H364.044ZM368.389 41.6016H366.692C366.692 40.2425 366.998 39.3311 367.608 38.8672C368.226 38.3952 369.431 38.1592 371.221 38.1592C373.166 38.1592 374.48 38.4481 375.164 39.0259C375.848 39.5955 376.189 40.686 376.189 42.2974V50H374.48L374.615 48.7427L374.578 48.7305C373.927 49.6908 372.605 50.1709 370.611 50.1709C367.665 50.1709 366.192 48.9868 366.192 46.6187C366.192 45.2108 366.522 44.2383 367.181 43.7012C367.84 43.1641 369.032 42.8955 370.757 42.8955C372.808 42.8955 374.037 43.2983 374.444 44.104L374.48 44.0918V42.6758C374.48 41.3411 374.297 40.4785 373.931 40.0879C373.565 39.6891 372.763 39.4897 371.526 39.4897C369.427 39.4897 368.377 40.0798 368.377 41.2598C368.377 41.3167 368.381 41.4307 368.389 41.6016ZM371.136 44.2261C369.826 44.2261 368.971 44.3644 368.572 44.6411C368.182 44.9178 367.986 45.5119 367.986 46.4233C367.986 47.3674 368.182 47.994 368.572 48.3032C368.963 48.6043 369.756 48.7549 370.953 48.7549C373.362 48.7549 374.566 48.0225 374.566 46.5576C374.566 45.638 374.33 45.0195 373.858 44.7021C373.394 44.3848 372.487 44.2261 371.136 44.2261ZM388.64 38.3301L385.332 50.6714C384.868 52.4129 384.351 53.6092 383.781 54.2603C383.22 54.9113 382.414 55.2368 381.364 55.2368C381.153 55.2368 380.88 55.2083 380.546 55.1514V53.7354C380.782 53.7842 380.982 53.8127 381.145 53.8208C382.064 53.8696 382.748 53.125 383.195 51.5869L383.525 50.4395C383.533 50.3988 383.57 50.2523 383.635 50H382.988L378.764 38.3301H380.583L382.377 43.5303L383.281 46.1182L383.72 47.4243L384.172 48.7183H384.221L384.538 47.4243L384.843 46.1182L385.502 43.5303L386.821 38.3301H388.64Z" fill="white"/>
<line x1="123.078" y1="187" x2="516.654" y2="187" stroke="#C7F001" stroke-width="2" stroke-linecap="round" stroke-dasharray="7 7"/>
<g clip-path="url(#clip0_16_26)">
<path d="M90.5 138C64.2665 138 43 159.266 43 185.5C43 211.734 64.2665 233 90.5 233C116.734 233 138 211.734 138 185.5C138 159.266 116.734 138 90.5 138ZM75.4346 148.738C75.6384 148.86 75.9409 149.031 76.33 149.223C76.7213 149.41 77.1991 149.62 77.7603 149.796C78.3203 149.974 78.9604 150.119 79.6651 150.205C80.0191 150.241 80.3852 150.279 80.7687 150.284C80.9594 150.291 81.1556 150.289 81.3518 150.291C81.5513 150.285 81.7508 150.285 81.9557 150.272C82.7722 150.237 83.638 150.134 84.5389 149.999C84.9883 149.929 85.4486 149.853 85.9155 149.771C86.3846 149.684 86.8602 149.597 87.3392 149.509C88.3015 149.326 89.29 149.138 90.294 148.975C91.2979 148.812 92.3171 148.676 93.3353 148.593C93.8438 148.549 94.3524 148.523 94.8565 148.512C95.3618 148.503 95.8616 148.5 96.3548 148.53C97.34 148.572 98.2957 148.704 99.1846 148.894C100.075 149.087 100.895 149.357 101.625 149.66C102.355 149.966 102.991 150.308 103.529 150.643C103.795 150.818 104.044 150.975 104.262 151.142C104.485 151.3 104.679 151.459 104.853 151.601C105.028 151.74 105.177 151.882 105.307 151.997C105.438 152.112 105.54 152.217 105.626 152.302C105.793 152.472 105.883 152.563 105.883 152.563C105.883 152.563 105.767 152.51 105.549 152.41C105.333 152.305 105.014 152.166 104.614 151.994C104.21 151.825 103.718 151.632 103.15 151.442C102.58 151.257 101.936 151.073 101.226 150.926C100.872 150.852 100.503 150.785 100.118 150.731C99.9266 150.702 99.7304 150.683 99.5331 150.655C99.3336 150.636 99.1331 150.615 98.9281 150.601C98.1083 150.54 97.2436 150.524 96.3449 150.564C96.2331 150.57 96.1202 150.575 96.0062 150.581C95.8933 150.588 95.7794 150.596 95.6643 150.603C95.4363 150.615 95.2051 150.636 94.9738 150.655C94.7415 150.678 94.508 150.699 94.2735 150.729C94.0378 150.755 93.8022 150.782 93.5644 150.81C92.6142 150.933 91.6431 151.086 90.6633 151.246C89.6835 151.405 88.6938 151.572 87.703 151.712C87.4554 151.747 87.2077 151.781 86.9622 151.816C86.7145 151.847 86.4679 151.875 86.2213 151.901C85.7281 151.954 85.2393 152.006 84.7505 152.03C83.7772 152.09 82.8204 152.089 81.9097 152.004C81 151.924 80.1397 151.747 79.3736 151.507C78.6075 151.258 77.9378 150.941 77.3876 150.603C76.8364 150.265 76.4023 149.911 76.0681 149.603C75.9037 149.445 75.7568 149.307 75.6417 149.174C75.5234 149.044 75.4225 148.936 75.3491 148.839C75.2 148.651 75.1211 148.551 75.1211 148.551C75.1211 148.551 75.2307 148.616 75.4368 148.738H75.4346ZM59.419 208.42C59.419 206.951 60.6103 205.76 62.0789 205.76H64.3366V176.559L77.6057 182.864V176.559L90.8748 182.864V176.559L104.144 182.864H105.56L106.599 155.318H108.028V156.756H109.342V155.318H110.896V156.756H112.21V155.318H113.64L114.679 182.864H116.667V205.76H118.924C120.393 205.76 121.584 206.952 121.584 208.42H59.419ZM68.2767 191.773H77.9707V187.733H68.2767V191.773ZM77.5049 188.252V191.564L76.9076 188.74L75.1452 188.251H77.5049V188.252ZM68.8883 188.016L69.4648 190.742L71.1657 191.213H68.8883V188.016ZM81.0767 191.773H90.7707V187.733H81.0767V191.773ZM90.2315 188.252V191.564L89.6342 188.74L87.8718 188.251H90.2315V188.252ZM81.6159 188.016L82.1924 190.742L83.8934 191.213H81.6159V188.016ZM93.8767 191.773H103.571V187.733H93.8767V191.773ZM103.031 188.252V191.564L102.434 188.74L100.672 188.251H103.031V188.252ZM94.4149 188.016L94.9913 190.742L96.6923 191.213H94.4149V188.016Z" fill="#C7F001"/>
</g>
<path d="M39.5371 251.066V264.396H38.0332V253.732V252.931L38.043 252.531L38.0527 252.131H38.0137L37.8965 252.443C37.8379 252.599 37.7988 252.7 37.7793 252.746L37.5254 253.371L32.9844 264.396H31.4805L26.9297 253.498L26.666 252.883L26.5488 252.57C26.5163 252.498 26.4772 252.398 26.4316 252.267H26.3926L26.4023 252.629L26.4121 253V253.732V264.396H24.9082V251.066H27.5156L31.0703 259.689L31.6367 261.086L31.9199 261.779L32.1934 262.472H32.2324L32.5059 261.779C32.6426 261.447 32.7337 261.216 32.7793 261.086L33.3555 259.699L36.8906 251.066H39.5371ZM44.4336 257.677H43.0762C43.0762 256.59 43.3203 255.861 43.8086 255.49C44.3034 255.112 45.2669 254.924 46.6992 254.924C48.2552 254.924 49.3066 255.155 49.8535 255.617C50.4004 256.073 50.6738 256.945 50.6738 258.234V264.396H49.3066L49.4141 263.39L49.3848 263.381C48.8639 264.149 47.806 264.533 46.2109 264.533C43.8542 264.533 42.6758 263.586 42.6758 261.691C42.6758 260.565 42.9395 259.787 43.4668 259.357C43.9941 258.927 44.9479 258.713 46.3281 258.713C47.9688 258.713 48.9518 259.035 49.2773 259.679L49.3066 259.67V258.537C49.3066 257.469 49.1602 256.779 48.8672 256.467C48.5742 256.148 47.9329 255.988 46.9434 255.988C45.2637 255.988 44.4238 256.46 44.4238 257.404C44.4238 257.45 44.4271 257.541 44.4336 257.677ZM46.6309 259.777C45.5827 259.777 44.8991 259.888 44.5801 260.109C44.2676 260.33 44.1113 260.806 44.1113 261.535C44.1113 262.29 44.2676 262.791 44.5801 263.039C44.8926 263.28 45.5273 263.4 46.4844 263.4C48.4115 263.4 49.375 262.814 49.375 261.642C49.375 260.907 49.1862 260.412 48.8086 260.158C48.4375 259.904 47.7116 259.777 46.6309 259.777ZM54.2031 255.06H55.5215L55.4824 256.33L55.5215 256.359C55.9382 255.402 56.9733 254.924 58.627 254.924C59.9616 254.924 60.8633 255.158 61.332 255.627C61.8073 256.095 62.0449 256.994 62.0449 258.322V264.396H60.6777V258.439V258.088C60.6777 257.287 60.5247 256.75 60.2188 256.476C59.9128 256.196 59.3236 256.056 58.4512 256.056C56.5306 256.056 55.5703 256.965 55.5703 258.781V264.396H54.2031V255.06ZM73.1328 255.06V264.396H71.7656L71.8633 263.175L71.834 263.146C71.3587 264.071 70.3431 264.533 68.7871 264.533C66.6061 264.533 65.5156 263.446 65.5156 261.271V255.06H66.8828V261.271C66.8828 262.118 67.0228 262.684 67.3027 262.97C67.5827 263.257 68.1328 263.4 68.9531 263.4C70.0273 263.4 70.763 263.189 71.1602 262.765C71.5638 262.336 71.7656 261.551 71.7656 260.412V255.06H73.1328ZM77.0332 264.396V256.193H75.6074V255.06H77.0332V253.674C77.0332 251.844 77.974 250.929 79.8555 250.929C80.1354 250.929 80.4642 250.952 80.8418 250.998V252.131C80.3991 252.085 80.0768 252.062 79.875 252.062C78.8919 252.062 78.4004 252.557 78.4004 253.547V255.06H80.8418V256.193H78.4004V264.396H77.0332ZM84.4102 257.677H83.0527C83.0527 256.59 83.2969 255.861 83.7852 255.49C84.2799 255.112 85.2435 254.924 86.6758 254.924C88.2318 254.924 89.2832 255.155 89.8301 255.617C90.377 256.073 90.6504 256.945 90.6504 258.234V264.396H89.2832L89.3906 263.39L89.3613 263.381C88.8405 264.149 87.7826 264.533 86.1875 264.533C83.8307 264.533 82.6523 263.586 82.6523 261.691C82.6523 260.565 82.916 259.787 83.4434 259.357C83.9707 258.927 84.9245 258.713 86.3047 258.713C87.9453 258.713 88.9284 259.035 89.2539 259.679L89.2832 259.67V258.537C89.2832 257.469 89.1367 256.779 88.8438 256.467C88.5508 256.148 87.9095 255.988 86.9199 255.988C85.2402 255.988 84.4004 256.46 84.4004 257.404C84.4004 257.45 84.4036 257.541 84.4102 257.677ZM86.6074 259.777C85.5592 259.777 84.8757 259.888 84.5566 260.109C84.2441 260.33 84.0879 260.806 84.0879 261.535C84.0879 262.29 84.2441 262.791 84.5566 263.039C84.8691 263.28 85.5039 263.4 86.4609 263.4C88.388 263.4 89.3516 262.814 89.3516 261.642C89.3516 260.907 89.1628 260.412 88.7852 260.158C88.4141 259.904 87.6882 259.777 86.6074 259.777ZM100.596 261.027H101.963L101.973 261.535C101.973 263.534 100.664 264.533 98.0469 264.533C96.3672 264.533 95.2572 264.217 94.7168 263.586C94.1764 262.954 93.9062 261.652 93.9062 259.679C93.9062 257.83 94.1797 256.577 94.7266 255.92C95.2799 255.256 96.3281 254.924 97.8711 254.924C99.388 254.924 100.423 255.148 100.977 255.597C101.53 256.04 101.807 256.877 101.807 258.107H100.439V257.863C100.439 257.14 100.26 256.659 99.9023 256.418C99.5443 256.177 98.8314 256.056 97.7637 256.056C96.735 256.056 96.0742 256.284 95.7812 256.74C95.4883 257.196 95.3418 258.218 95.3418 259.806C95.3418 261.356 95.5078 262.342 95.8398 262.765C96.1784 263.189 96.9629 263.4 98.1934 263.4C99.235 263.4 99.8958 263.263 100.176 262.99C100.456 262.71 100.596 262.056 100.596 261.027ZM109.838 255.06V256.193H106.244V261.906C106.244 262.902 106.687 263.4 107.572 263.4C108.451 263.4 108.891 262.954 108.891 262.062L108.9 261.603L108.92 261.086H110.189L110.199 261.779C110.199 263.615 109.327 264.533 107.582 264.533C105.779 264.533 104.877 263.768 104.877 262.238V261.906V256.193H103.588V255.06H104.877V252.814H106.244V255.06H109.838ZM120.027 255.06V264.396H118.66L118.758 263.175L118.729 263.146C118.253 264.071 117.238 264.533 115.682 264.533C113.501 264.533 112.41 263.446 112.41 261.271V255.06H113.777V261.271C113.777 262.118 113.917 262.684 114.197 262.97C114.477 263.257 115.027 263.4 115.848 263.4C116.922 263.4 117.658 263.189 118.055 262.765C118.458 262.336 118.66 261.551 118.66 260.412V255.06H120.027ZM123.703 255.06H125.07L124.934 256.134L124.963 256.164C125.503 255.285 126.395 254.845 127.639 254.845C129.357 254.845 130.217 255.731 130.217 257.502L130.207 258.146H128.859L128.889 257.912C128.908 257.664 128.918 257.498 128.918 257.414C128.918 256.457 128.397 255.978 127.355 255.978C125.832 255.978 125.07 256.919 125.07 258.8V264.396H123.703V255.06ZM139.029 261.574H140.426L140.436 261.916C140.436 262.886 140.139 263.566 139.547 263.957C138.961 264.341 137.929 264.533 136.451 264.533C134.732 264.533 133.603 264.22 133.062 263.595C132.529 262.964 132.262 261.642 132.262 259.631C132.262 257.769 132.532 256.519 133.072 255.881C133.613 255.243 134.671 254.924 136.246 254.924C137.965 254.924 139.091 255.2 139.625 255.754C140.159 256.307 140.426 257.472 140.426 259.25V259.982H133.707C133.707 261.453 133.863 262.391 134.176 262.795C134.495 263.198 135.234 263.4 136.393 263.4C137.493 263.4 138.206 263.306 138.531 263.117C138.863 262.922 139.029 262.505 139.029 261.867V261.574ZM139.029 258.918L139.02 258.478C139.02 257.469 138.854 256.815 138.521 256.515C138.189 256.209 137.473 256.056 136.373 256.056C135.266 256.056 134.547 256.235 134.215 256.593C133.889 256.945 133.727 257.72 133.727 258.918H139.029ZM143.73 255.06H145.098L144.961 256.134L144.99 256.164C145.531 255.285 146.423 254.845 147.666 254.845C149.385 254.845 150.244 255.731 150.244 257.502L150.234 258.146H148.887L148.916 257.912C148.936 257.664 148.945 257.498 148.945 257.414C148.945 256.457 148.424 255.978 147.383 255.978C145.859 255.978 145.098 256.919 145.098 258.8V264.396H143.73V255.06Z" fill="white"/>
<g clip-path="url(#clip1_16_26)">
<path d="M569.51 218.501C587.742 200.272 587.742 170.716 569.51 152.487C551.279 134.258 521.72 134.258 503.488 152.487C485.256 170.716 485.256 200.272 503.488 218.501C521.72 236.731 551.279 236.731 569.51 218.501Z" fill="#1A1A1A"/>
<path d="M536.5 232.988C510.309 232.988 489 211.683 489 185.494C489 159.305 510.309 138 536.5 138C562.69 138 584.002 159.305 584.002 185.494C584.002 211.683 562.692 232.988 536.5 232.988ZM536.5 139.632C511.207 139.632 490.632 160.206 490.632 185.494C490.632 210.782 511.207 231.357 536.5 231.357C561.793 231.357 582.37 210.782 582.37 185.494C582.37 160.206 561.791 139.632 536.5 139.632Z" fill="#C7F001"/>
<mask id="mask0_16_26" style="mask-type:luminance" maskUnits="userSpaceOnUse" x="489" y="138" width="95" height="95">
<path d="M569.51 218.501C587.742 200.272 587.742 170.716 569.51 152.487C551.279 134.258 521.72 134.258 503.488 152.487C485.256 170.716 485.256 200.272 503.488 218.501C521.72 236.731 551.279 236.731 569.51 218.501Z" fill="white"/>
</mask>
<g mask="url(#mask0_16_26)">
<path d="M557.509 175.26C558.346 163.84 549.765 153.903 538.343 153.067C526.922 152.23 516.985 160.81 516.148 172.23C515.311 183.65 523.892 193.586 535.313 194.423C546.735 195.259 556.672 186.68 557.509 175.26Z" fill="#C7F001"/>
<path d="M536.827 192.879C522.437 192.879 510.771 204.544 510.771 218.933V233H562.884V218.933C562.884 204.544 551.217 192.879 536.827 192.879Z" fill="#C7F001"/>
</g>
</g>
<path d="M496.738 259.576H498.232V260.084C498.232 261.9 497.923 263.036 497.305 263.492C496.686 263.941 495.13 264.166 492.637 264.166C490.404 264.166 488.984 263.769 488.379 262.975C487.773 262.174 487.471 260.296 487.471 257.34C487.471 255.029 487.539 253.577 487.676 252.984C487.812 252.385 488.203 251.852 488.848 251.383C489.603 250.836 491.234 250.562 493.74 250.562C495.439 250.562 496.582 250.826 497.168 251.353C497.76 251.881 498.057 252.9 498.057 254.41L498.066 254.771H496.572L496.562 254.361C496.562 253.287 496.387 252.597 496.035 252.291C495.69 251.985 494.906 251.832 493.682 251.832C491.533 251.832 490.221 252.011 489.746 252.369C489.271 252.727 489.033 253.72 489.033 255.348C489.033 259.091 489.193 261.285 489.512 261.93C489.831 262.574 490.921 262.896 492.783 262.896C494.554 262.896 495.657 262.756 496.094 262.477C496.536 262.197 496.758 261.493 496.758 260.367L496.738 259.576ZM504.721 254.557C506.446 254.557 507.566 254.856 508.08 255.455C508.594 256.054 508.852 257.356 508.852 259.361C508.852 261.367 508.594 262.669 508.08 263.268C507.566 263.867 506.446 264.166 504.721 264.166C503.002 264.166 501.885 263.867 501.371 263.268C500.857 262.669 500.6 261.367 500.6 259.361C500.6 257.356 500.857 256.054 501.371 255.455C501.885 254.856 503.002 254.557 504.721 254.557ZM504.721 255.689C503.51 255.689 502.758 255.888 502.465 256.285C502.178 256.676 502.035 257.701 502.035 259.361C502.035 261.021 502.178 262.05 502.465 262.447C502.758 262.838 503.51 263.033 504.721 263.033C505.938 263.033 506.69 262.838 506.977 262.447C507.269 262.05 507.416 261.021 507.416 259.361C507.416 257.701 507.269 256.676 506.977 256.285C506.69 255.888 505.938 255.689 504.721 255.689ZM511.98 254.693H513.299L513.26 255.963L513.299 255.992C513.715 255.035 514.751 254.557 516.404 254.557C517.739 254.557 518.641 254.791 519.109 255.26C519.585 255.728 519.822 256.627 519.822 257.955V264.029H518.455V258.072V257.721C518.455 256.92 518.302 256.383 517.996 256.109C517.69 255.829 517.101 255.689 516.228 255.689C514.308 255.689 513.348 256.598 513.348 258.414V264.029H511.98V254.693ZM530.529 257.135H529.162C529.162 256.484 529.029 256.08 528.762 255.924C528.501 255.768 527.824 255.689 526.73 255.689C525.715 255.689 525.07 255.774 524.797 255.943C524.523 256.106 524.387 256.503 524.387 257.135C524.387 258.092 524.846 258.593 525.764 258.639L526.867 258.697L528.264 258.766C529.956 258.85 530.803 259.736 530.803 261.422C530.803 262.47 530.523 263.189 529.963 263.58C529.403 263.971 528.378 264.166 526.887 264.166C525.357 264.166 524.302 263.98 523.723 263.609C523.15 263.238 522.863 262.558 522.863 261.568L522.873 261.061H524.289L524.299 261.5C524.299 262.112 524.455 262.522 524.768 262.73C525.08 262.932 525.695 263.033 526.613 263.033C527.74 263.033 528.478 262.926 528.83 262.711C529.188 262.496 529.367 262.047 529.367 261.363C529.367 260.38 528.921 259.889 528.029 259.889C525.952 259.889 524.585 259.713 523.928 259.361C523.277 259.01 522.951 258.281 522.951 257.174C522.951 256.126 523.208 255.429 523.723 255.084C524.243 254.732 525.275 254.557 526.818 254.557C529.292 254.557 530.529 255.302 530.529 256.793V257.135ZM541.383 254.693V264.029H540.016L540.113 262.809L540.084 262.779C539.609 263.704 538.593 264.166 537.037 264.166C534.856 264.166 533.766 263.079 533.766 260.904V254.693H535.133V260.904C535.133 261.751 535.273 262.317 535.553 262.603C535.833 262.89 536.383 263.033 537.203 263.033C538.277 263.033 539.013 262.822 539.41 262.398C539.814 261.969 540.016 261.184 540.016 260.045V254.693H541.383ZM544.922 254.693H546.289L546.26 256.1L546.289 256.129C546.816 255.081 547.832 254.557 549.336 254.557C550.918 254.557 551.878 255.081 552.217 256.129H552.256C552.842 255.081 553.913 254.557 555.469 254.557C557.669 254.557 558.769 255.68 558.769 257.926V264.029H557.402V257.799C557.402 256.978 557.256 256.422 556.963 256.129C556.67 255.836 556.116 255.689 555.303 255.689C554.222 255.689 553.49 255.895 553.105 256.305C552.721 256.708 552.529 257.483 552.529 258.629V264.029H551.162V257.926L551.143 257.496C551.143 256.292 550.456 255.689 549.082 255.689C547.22 255.689 546.289 256.702 546.289 258.727V264.029H544.922V254.693ZM568.939 261.207H570.336L570.346 261.549C570.346 262.519 570.049 263.199 569.457 263.59C568.871 263.974 567.839 264.166 566.361 264.166C564.643 264.166 563.513 263.853 562.973 263.228C562.439 262.597 562.172 261.275 562.172 259.264C562.172 257.402 562.442 256.152 562.982 255.514C563.523 254.876 564.581 254.557 566.156 254.557C567.875 254.557 569.001 254.833 569.535 255.387C570.069 255.94 570.336 257.105 570.336 258.883V259.615H563.617C563.617 261.087 563.773 262.024 564.086 262.428C564.405 262.831 565.144 263.033 566.303 263.033C567.403 263.033 568.116 262.939 568.441 262.75C568.773 262.555 568.939 262.138 568.939 261.5V261.207ZM568.939 258.551L568.93 258.111C568.93 257.102 568.764 256.448 568.432 256.148C568.1 255.842 567.383 255.689 566.283 255.689C565.176 255.689 564.457 255.868 564.125 256.227C563.799 256.578 563.637 257.353 563.637 258.551H568.939ZM573.641 254.693H575.008L574.871 255.768L574.9 255.797C575.441 254.918 576.333 254.478 577.576 254.478C579.295 254.478 580.154 255.364 580.154 257.135L580.144 257.779H578.797L578.826 257.545C578.846 257.297 578.855 257.131 578.855 257.047C578.855 256.09 578.335 255.611 577.293 255.611C575.769 255.611 575.008 256.552 575.008 258.434V264.029H573.641V254.693Z" fill="white"/>
<path d="M198.984 264.846V251.516H205.156C207.064 251.516 208.356 251.936 209.033 252.775C209.71 253.615 210.049 255.223 210.049 257.6C210.049 260.49 209.746 262.421 209.141 263.391C208.542 264.361 207.34 264.846 205.537 264.846H198.984ZM200.488 263.576H204.834C206.429 263.576 207.458 263.257 207.92 262.619C208.382 261.981 208.613 260.559 208.613 258.352C208.613 255.93 208.411 254.397 208.008 253.752C207.611 253.108 206.654 252.785 205.137 252.785H200.488V263.576ZM214.35 251.516V253.049H212.982V251.516H214.35ZM214.35 255.51V264.846H212.982V255.51H214.35ZM224.988 257.951H223.621C223.621 257.3 223.488 256.897 223.221 256.74C222.96 256.584 222.283 256.506 221.189 256.506C220.174 256.506 219.529 256.591 219.256 256.76C218.982 256.923 218.846 257.32 218.846 257.951C218.846 258.908 219.305 259.41 220.223 259.455L221.326 259.514L222.723 259.582C224.415 259.667 225.262 260.552 225.262 262.238C225.262 263.287 224.982 264.006 224.422 264.397C223.862 264.787 222.837 264.983 221.346 264.983C219.816 264.983 218.761 264.797 218.182 264.426C217.609 264.055 217.322 263.374 217.322 262.385L217.332 261.877H218.748L218.758 262.316C218.758 262.928 218.914 263.339 219.227 263.547C219.539 263.749 220.154 263.85 221.072 263.85C222.199 263.85 222.938 263.742 223.289 263.527C223.647 263.313 223.826 262.863 223.826 262.18C223.826 261.197 223.38 260.705 222.488 260.705C220.411 260.705 219.044 260.529 218.387 260.178C217.736 259.826 217.41 259.097 217.41 257.99C217.41 256.942 217.667 256.246 218.182 255.9C218.702 255.549 219.734 255.373 221.277 255.373C223.751 255.373 224.988 256.119 224.988 257.609V257.951ZM233.176 255.51V256.643H229.582V262.356C229.582 263.352 230.025 263.85 230.91 263.85C231.789 263.85 232.229 263.404 232.229 262.512L232.238 262.053L232.258 261.535H233.527L233.537 262.229C233.537 264.065 232.665 264.983 230.92 264.983C229.117 264.983 228.215 264.218 228.215 262.688V262.356V256.643H226.926V255.51H228.215V253.264H229.582V255.51H233.176ZM235.885 255.51H237.252L237.115 256.584L237.145 256.613C237.685 255.734 238.577 255.295 239.82 255.295C241.539 255.295 242.398 256.18 242.398 257.951L242.389 258.596H241.041L241.07 258.361C241.09 258.114 241.1 257.948 241.1 257.863C241.1 256.906 240.579 256.428 239.537 256.428C238.014 256.428 237.252 257.369 237.252 259.25V264.846H235.885V255.51ZM246.084 251.516V253.049H244.717V251.516H246.084ZM246.084 255.51V264.846H244.717V255.51H246.084ZM249.486 264.846V251.516H250.854V256.701L250.883 256.731C251.195 255.826 252.217 255.373 253.949 255.373C255.316 255.373 256.26 255.728 256.781 256.438C257.302 257.147 257.562 258.433 257.562 260.295C257.562 262.059 257.286 263.283 256.732 263.967C256.186 264.644 255.193 264.983 253.754 264.983C252.289 264.983 251.312 264.55 250.824 263.684L250.785 263.693L250.854 264.846H249.486ZM253.598 256.506C252.523 256.506 251.804 256.737 251.439 257.199C251.075 257.655 250.893 258.566 250.893 259.934C250.893 261.62 251.055 262.694 251.381 263.156C251.713 263.619 252.471 263.85 253.656 263.85C254.659 263.85 255.32 263.615 255.639 263.147C255.964 262.671 256.127 261.701 256.127 260.236C256.127 258.693 255.967 257.688 255.648 257.219C255.329 256.744 254.646 256.506 253.598 256.506ZM268.338 255.51V264.846H266.971L267.068 263.625L267.039 263.596C266.564 264.52 265.548 264.983 263.992 264.983C261.811 264.983 260.721 263.895 260.721 261.721V255.51H262.088V261.721C262.088 262.567 262.228 263.134 262.508 263.42C262.788 263.706 263.338 263.85 264.158 263.85C265.232 263.85 265.968 263.638 266.365 263.215C266.769 262.785 266.971 262.001 266.971 260.861V255.51H268.338ZM276.828 255.51V256.643H273.234V262.356C273.234 263.352 273.677 263.85 274.562 263.85C275.441 263.85 275.881 263.404 275.881 262.512L275.891 262.053L275.91 261.535H277.18L277.189 262.229C277.189 264.065 276.317 264.983 274.572 264.983C272.769 264.983 271.867 264.218 271.867 262.688V262.356V256.643H270.578V255.51H271.867V253.264H273.234V255.51H276.828ZM283.258 255.373C284.983 255.373 286.103 255.673 286.617 256.272C287.132 256.871 287.389 258.173 287.389 260.178C287.389 262.183 287.132 263.485 286.617 264.084C286.103 264.683 284.983 264.983 283.258 264.983C281.539 264.983 280.423 264.683 279.908 264.084C279.394 263.485 279.137 262.183 279.137 260.178C279.137 258.173 279.394 256.871 279.908 256.272C280.423 255.673 281.539 255.373 283.258 255.373ZM283.258 256.506C282.047 256.506 281.295 256.705 281.002 257.102C280.715 257.492 280.572 258.518 280.572 260.178C280.572 261.838 280.715 262.867 281.002 263.264C281.295 263.654 282.047 263.85 283.258 263.85C284.475 263.85 285.227 263.654 285.514 263.264C285.807 262.867 285.953 261.838 285.953 260.178C285.953 258.518 285.807 257.492 285.514 257.102C285.227 256.705 284.475 256.506 283.258 256.506ZM290.654 255.51H292.021L291.885 256.584L291.914 256.613C292.454 255.734 293.346 255.295 294.59 255.295C296.309 255.295 297.168 256.18 297.168 257.951L297.158 258.596H295.811L295.84 258.361C295.859 258.114 295.869 257.948 295.869 257.863C295.869 256.906 295.348 256.428 294.307 256.428C292.783 256.428 292.021 257.369 292.021 259.25V264.846H290.654V255.51Z" fill="white"/>
<g clip-path="url(#clip2_16_26)">
<path d="M297 185.5C297 159.266 275.734 138 249.5 138C223.266 138 202 159.266 202 185.5C202 211.734 223.266 233 249.5 233C275.734 233 297 211.734 297 185.5Z" fill="#C7F001"/>
<path d="M284.969 170.156H239.148V199.74H284.969V170.156Z" fill="#C7F001"/>
<path d="M239.148 174.447H222.259L214.305 187.238V199.74H239.148V174.447Z" fill="#1A1A1A"/>
<path d="M236.274 177.329H223.853L217.694 187.238H236.274V177.329Z" fill="#C7F001"/>
<path d="M226.348 204.844C229.167 204.844 231.452 202.559 231.452 199.74C231.452 196.922 229.167 194.636 226.348 194.636C223.529 194.636 221.244 196.922 221.244 199.74C221.244 202.559 223.529 204.844 226.348 204.844Z" fill="#1A1A1A"/>
<path d="M226.348 202.147C227.678 202.147 228.755 201.07 228.755 199.74C228.755 198.411 227.678 197.333 226.348 197.333C225.019 197.333 223.941 198.411 223.941 199.74C223.941 201.07 225.019 202.147 226.348 202.147Z" fill="#C7F001"/>
<path d="M272.749 204.844C275.568 204.844 277.853 202.559 277.853 199.74C277.853 196.922 275.568 194.636 272.749 194.636C269.931 194.636 267.646 196.922 267.646 199.74C267.646 202.559 269.931 204.844 272.749 204.844Z" fill="#1A1A1A"/>
<path d="M272.749 202.147C274.079 202.147 275.156 201.07 275.156 199.74C275.156 198.411 274.079 197.333 272.749 197.333C271.42 197.333 270.342 198.411 270.342 199.74C270.342 201.07 271.42 202.147 272.749 202.147Z" fill="#C7F001"/>
<path d="M267.412 200.948H239.14C238.472 200.948 237.932 200.408 237.932 199.74V170.156C237.932 169.488 238.472 168.948 239.14 168.948H266.913C267.581 168.948 268.12 169.488 268.12 170.156C268.12 170.824 267.581 171.363 266.913 171.363H240.347V198.533H267.412C268.08 198.533 268.62 199.072 268.62 199.74C268.62 200.408 268.08 200.948 267.412 200.948Z" fill="#1A1A1A"/>
<path d="M269.739 171.363H269.03C268.362 171.363 267.823 170.824 267.823 170.156C267.823 169.488 268.362 168.948 269.03 168.948H269.739C270.407 168.948 270.946 169.488 270.946 170.156C270.946 170.824 270.407 171.363 269.739 171.363Z" fill="#1A1A1A"/>
<path d="M284.969 200.948H278.602C277.934 200.948 277.394 200.408 277.394 199.74C277.394 199.072 277.934 198.533 278.602 198.533H283.762V171.363H273.466C272.798 171.363 272.258 170.824 272.258 170.156C272.258 169.488 272.798 168.948 273.466 168.948H284.969C285.638 168.948 286.177 169.488 286.177 170.156V199.74C286.177 200.408 285.638 200.948 284.969 200.948Z" fill="#1A1A1A"/>
<path d="M239.148 200.948H231.758C231.09 200.948 230.55 200.408 230.55 199.74C230.55 199.072 231.09 198.533 231.758 198.533H237.94V175.654H222.927L215.513 187.576V191.465C215.513 192.133 214.973 192.672 214.305 192.672C213.637 192.672 213.098 192.133 213.098 191.465V187.23C213.098 187.005 213.162 186.788 213.283 186.594L221.228 173.811C221.446 173.456 221.84 173.239 222.251 173.239H239.14C239.808 173.239 240.347 173.778 240.347 174.447V199.74C240.347 200.408 239.808 200.948 239.14 200.948H239.148Z" fill="#1A1A1A"/>
<path d="M221.043 200.948H214.313C213.645 200.948 213.106 200.408 213.106 199.74V194.153C213.106 193.485 213.645 192.946 214.313 192.946C214.981 192.946 215.521 193.485 215.521 194.153V198.533H221.043C221.711 198.533 222.251 199.072 222.251 199.74C222.251 200.408 221.711 200.948 221.043 200.948Z" fill="#1A1A1A"/>
<path d="M226.348 206.052C222.871 206.052 220.037 203.218 220.037 199.74C220.037 196.263 222.871 193.429 226.348 193.429C229.826 193.429 232.66 196.263 232.66 199.74C232.66 203.218 229.826 206.052 226.348 206.052ZM226.348 195.852C224.199 195.852 222.452 197.599 222.452 199.748C222.452 201.898 224.199 203.645 226.348 203.645C228.498 203.645 230.244 201.898 230.244 199.748C230.244 197.599 228.498 195.852 226.348 195.852Z" fill="#1A1A1A"/>
<path d="M272.749 206.052C269.272 206.052 266.438 203.218 266.438 199.74C266.438 196.263 269.272 193.429 272.749 193.429C276.227 193.429 279.061 196.263 279.061 199.74C279.061 203.218 276.227 206.052 272.749 206.052ZM272.749 195.852C270.6 195.852 268.853 197.599 268.853 199.748C268.853 201.898 270.6 203.645 272.749 203.645C274.899 203.645 276.646 201.898 276.646 199.748C276.646 197.599 274.899 195.852 272.749 195.852Z" fill="#1A1A1A"/>
</g>
<path d="M357.367 265V251.67H363.715C365.147 251.67 366.156 251.953 366.742 252.52C367.328 253.086 367.621 254.069 367.621 255.469C367.621 256.699 367.462 257.559 367.143 258.047C366.824 258.529 366.215 258.841 365.316 258.984V259.014C366.729 259.118 367.436 259.977 367.436 261.592V265H365.932V261.934C365.932 260.378 365.258 259.6 363.91 259.6H363.412H358.871V265H357.367ZM358.871 258.33H363.217C364.363 258.33 365.144 258.158 365.561 257.812C365.977 257.461 366.186 256.803 366.186 255.84C366.186 254.635 366.029 253.851 365.717 253.486C365.411 253.122 364.75 252.939 363.734 252.939H358.871V258.33ZM377.254 262.178H378.65L378.66 262.52C378.66 263.49 378.364 264.17 377.771 264.561C377.186 264.945 376.154 265.137 374.676 265.137C372.957 265.137 371.827 264.824 371.287 264.199C370.753 263.568 370.486 262.246 370.486 260.234C370.486 258.372 370.757 257.122 371.297 256.484C371.837 255.846 372.895 255.527 374.471 255.527C376.189 255.527 377.316 255.804 377.85 256.357C378.383 256.911 378.65 258.076 378.65 259.854V260.586H371.932C371.932 262.057 372.088 262.995 372.4 263.398C372.719 263.802 373.458 264.004 374.617 264.004C375.717 264.004 376.43 263.91 376.756 263.721C377.088 263.525 377.254 263.109 377.254 262.471V262.178ZM377.254 259.521L377.244 259.082C377.244 258.073 377.078 257.419 376.746 257.119C376.414 256.813 375.698 256.66 374.598 256.66C373.491 256.66 372.771 256.839 372.439 257.197C372.114 257.549 371.951 258.324 371.951 259.521H377.254ZM386.77 255.664V256.797H383.176V262.51C383.176 263.506 383.618 264.004 384.504 264.004C385.383 264.004 385.822 263.558 385.822 262.666L385.832 262.207L385.852 261.689H387.121L387.131 262.383C387.131 264.219 386.258 265.137 384.514 265.137C382.71 265.137 381.809 264.372 381.809 262.842V262.51V256.797H380.52V255.664H381.809V253.418H383.176V255.664H386.77ZM390.768 258.281H389.41C389.41 257.194 389.654 256.465 390.143 256.094C390.637 255.716 391.601 255.527 393.033 255.527C394.589 255.527 395.641 255.758 396.188 256.221C396.734 256.676 397.008 257.549 397.008 258.838V265H395.641L395.748 263.994L395.719 263.984C395.198 264.753 394.14 265.137 392.545 265.137C390.188 265.137 389.01 264.189 389.01 262.295C389.01 261.169 389.273 260.391 389.801 259.961C390.328 259.531 391.282 259.316 392.662 259.316C394.303 259.316 395.286 259.639 395.611 260.283L395.641 260.273V259.141C395.641 258.073 395.494 257.383 395.201 257.07C394.908 256.751 394.267 256.592 393.277 256.592C391.598 256.592 390.758 257.064 390.758 258.008C390.758 258.053 390.761 258.145 390.768 258.281ZM392.965 260.381C391.917 260.381 391.233 260.492 390.914 260.713C390.602 260.934 390.445 261.41 390.445 262.139C390.445 262.894 390.602 263.395 390.914 263.643C391.227 263.883 391.861 264.004 392.818 264.004C394.745 264.004 395.709 263.418 395.709 262.246C395.709 261.51 395.52 261.016 395.143 260.762C394.771 260.508 394.046 260.381 392.965 260.381ZM401.904 251.67V253.203H400.537V251.67H401.904ZM401.904 255.664V265H400.537V255.664H401.904ZM406.674 251.67V265H405.307V251.67H406.674ZM416.57 262.178H417.967L417.977 262.52C417.977 263.49 417.68 264.17 417.088 264.561C416.502 264.945 415.47 265.137 413.992 265.137C412.273 265.137 411.144 264.824 410.604 264.199C410.07 263.568 409.803 262.246 409.803 260.234C409.803 258.372 410.073 257.122 410.613 256.484C411.154 255.846 412.212 255.527 413.787 255.527C415.506 255.527 416.632 255.804 417.166 256.357C417.7 256.911 417.967 258.076 417.967 259.854V260.586H411.248C411.248 262.057 411.404 262.995 411.717 263.398C412.036 263.802 412.775 264.004 413.934 264.004C415.034 264.004 415.747 263.91 416.072 263.721C416.404 263.525 416.57 263.109 416.57 262.471V262.178ZM416.57 259.521L416.561 259.082C416.561 258.073 416.395 257.419 416.062 257.119C415.73 256.813 415.014 256.66 413.914 256.66C412.807 256.66 412.088 256.839 411.756 257.197C411.43 257.549 411.268 258.324 411.268 259.521H416.57ZM421.271 255.664H422.639L422.502 256.738L422.531 256.768C423.072 255.889 423.964 255.449 425.207 255.449C426.926 255.449 427.785 256.335 427.785 258.105L427.775 258.75H426.428L426.457 258.516C426.477 258.268 426.486 258.102 426.486 258.018C426.486 257.061 425.965 256.582 424.924 256.582C423.4 256.582 422.639 257.523 422.639 259.404V265H421.271V255.664Z" fill="white"/>
<path d="M439 185.5C439 159.266 417.734 138 391.5 138C365.266 138 344 159.266 344 185.5C344 211.734 365.266 233 391.5 233C417.734 233 439 211.734 439 185.5Z" fill="#C7F001"/>
<g clip-path="url(#clip3_16_26)">
<path d="M422.177 160.136H361.812V166.441H364.945V212.709H419.045V166.441H422.177V160.136ZM400.188 211.488V196.744H411.374V211.488H400.188ZM417.336 211.488H413.082V195.523H398.479V211.488H366.654V166.441H417.336V211.488ZM420.468 165.221H363.522V161.357H420.469V165.221H420.468Z" fill="#1A1A1A"/>
<path d="M415.057 185.05H368.931V186.27H415.057V185.05Z" fill="#1A1A1A"/>
<path d="M373.12 193.12C375.434 193.12 377.31 191.78 377.31 190.127V186.946H368.931V190.127C368.931 191.78 370.807 193.12 373.12 193.12Z" fill="#1A1A1A"/>
<path d="M382.558 193.12C384.871 193.12 386.747 191.78 386.747 190.127V186.946H378.368V190.127C378.368 191.78 380.244 193.12 382.558 193.12Z" fill="#1A1A1A"/>
<path d="M387.806 190.127C387.806 191.78 389.682 193.12 391.996 193.12C394.309 193.12 396.185 191.78 396.185 190.127V186.946H387.806V190.127Z" fill="#1A1A1A"/>
<path d="M397.242 190.127C397.242 191.78 399.118 193.12 401.432 193.12C403.745 193.12 405.621 191.78 405.621 190.127V186.946H397.242V190.127Z" fill="#1A1A1A"/>
<path d="M406.68 190.127C406.68 191.78 408.556 193.12 410.87 193.12C413.183 193.12 415.059 191.78 415.059 190.127V186.946H406.68V190.127Z" fill="#1A1A1A"/>
<path d="M385.499 169.431H372.51V182.232H385.5V169.431H385.499ZM384.262 175.221H379.623V170.65H384.262V175.221ZM378.386 170.65V175.221H373.747V170.65H378.386ZM373.747 176.441H378.386V181.012H373.747V176.441ZM379.623 181.012V176.441H384.262V181.012H379.623Z" fill="#1A1A1A"/>
<path d="M411.48 169.431H398.49V182.232H411.48V169.431ZM410.243 175.221H405.604V170.65H410.243V175.221ZM404.366 170.65V175.221H399.727V170.65H404.366ZM399.727 176.441H404.366V181.012H399.727V176.441ZM405.604 181.012V176.441H410.243V181.012H405.604Z" fill="#1A1A1A"/>
<path d="M408.527 202.439C407.662 202.439 406.96 202.962 406.96 203.608C406.96 204.254 407.661 204.778 408.527 204.778C409.393 204.778 410.092 204.254 410.092 203.608C410.092 202.962 409.391 202.439 408.527 202.439Z" fill="#666666"/>
</g>
<path d="M141.454 90.703C139.6 91.081 137.935 91.27 136.459 91.27C134.983 91.27 133.786 91.072 132.868 90.676C131.968 90.262 131.266 89.632 130.762 88.786C130.276 87.922 129.934 86.941 129.736 85.843C129.556 84.727 129.466 83.341 129.466 81.685C129.466 80.029 129.556 78.643 129.736 77.527C129.934 76.393 130.276 75.394 130.762 74.53C131.266 73.666 131.968 73.036 132.868 72.64C133.768 72.244 134.938 72.046 136.378 72.046C137.818 72.046 139.51 72.244 141.454 72.64L141.373 74.395C139.555 74.071 137.935 73.909 136.513 73.909C134.533 73.909 133.219 74.503 132.571 75.691C131.941 76.861 131.626 78.868 131.626 81.712C131.626 83.134 131.68 84.277 131.788 85.141C131.914 86.005 132.148 86.788 132.49 87.49C132.832 88.174 133.327 88.669 133.975 88.975C134.641 89.263 135.604 89.407 136.864 89.407C138.142 89.407 139.645 89.245 141.373 88.921L141.454 90.703ZM145.398 91V77.5H147.396V79.336C148.962 78.256 150.609 77.545 152.337 77.203V79.255C151.581 79.399 150.789 79.624 149.961 79.93C149.151 80.236 148.53 80.506 148.098 80.74L147.423 81.091V91H145.398ZM164.648 89.326L165.431 89.245L165.485 90.838C163.433 91.126 161.678 91.27 160.22 91.27C158.276 91.27 156.899 90.712 156.089 89.596C155.279 88.462 154.874 86.707 154.874 84.331C154.874 79.597 156.755 77.23 160.517 77.23C162.335 77.23 163.694 77.743 164.594 78.769C165.494 79.777 165.944 81.37 165.944 83.548L165.836 85.087H156.926C156.926 86.581 157.196 87.688 157.736 88.408C158.276 89.128 159.212 89.488 160.544 89.488C161.894 89.488 163.262 89.434 164.648 89.326ZM163.919 83.467C163.919 81.811 163.649 80.641 163.109 79.957C162.587 79.273 161.723 78.931 160.517 78.931C159.329 78.931 158.429 79.291 157.817 80.011C157.223 80.731 156.917 81.883 156.899 83.467H163.919ZM179.631 81.577V88.489C179.685 89.155 180.207 89.551 181.197 89.677L181.116 91.27C179.694 91.27 178.623 90.91 177.903 90.19C176.283 90.91 174.663 91.27 173.043 91.27C171.801 91.27 170.856 90.919 170.208 90.217C169.56 89.515 169.236 88.507 169.236 87.193C169.236 85.879 169.569 84.916 170.235 84.304C170.901 83.674 171.945 83.287 173.367 83.143L177.606 82.738V81.577C177.606 80.659 177.408 80.002 177.012 79.606C176.616 79.21 176.076 79.012 175.392 79.012C173.952 79.012 172.458 79.102 170.91 79.282L170.073 79.363L169.992 77.824C171.972 77.428 173.727 77.23 175.257 77.23C176.787 77.23 177.894 77.581 178.578 78.283C179.28 78.985 179.631 80.083 179.631 81.577ZM171.315 87.085C171.315 88.741 171.999 89.569 173.367 89.569C174.591 89.569 175.797 89.362 176.985 88.948L177.606 88.732V84.277L173.61 84.655C172.8 84.727 172.215 84.961 171.855 85.357C171.495 85.753 171.315 86.329 171.315 87.085ZM191.619 79.255H187.326V85.708C187.326 87.256 187.434 88.273 187.65 88.759C187.884 89.245 188.424 89.488 189.27 89.488L191.673 89.326L191.808 91C190.602 91.198 189.684 91.297 189.054 91.297C187.65 91.297 186.678 90.955 186.138 90.271C185.598 89.587 185.328 88.282 185.328 86.356V79.255H183.411V77.5H185.328V73.369H187.326V77.5H191.619V79.255ZM204.272 89.326L205.055 89.245L205.109 90.838C203.057 91.126 201.302 91.27 199.844 91.27C197.9 91.27 196.523 90.712 195.713 89.596C194.903 88.462 194.498 86.707 194.498 84.331C194.498 79.597 196.379 77.23 200.141 77.23C201.959 77.23 203.318 77.743 204.218 78.769C205.118 79.777 205.568 81.37 205.568 83.548L205.46 85.087H196.55C196.55 86.581 196.82 87.688 197.36 88.408C197.9 89.128 198.836 89.488 200.168 89.488C201.518 89.488 202.886 89.434 204.272 89.326ZM203.543 83.467C203.543 81.811 203.273 80.641 202.733 79.957C202.211 79.273 201.347 78.931 200.141 78.931C198.953 78.931 198.053 79.291 197.441 80.011C196.847 80.731 196.541 81.883 196.523 83.467H203.543ZM213.963 79.039C212.001 79.039 211.02 79.723 211.02 81.091C211.02 81.721 211.245 82.171 211.695 82.441C212.145 82.693 213.171 82.963 214.773 83.251C216.375 83.521 217.509 83.908 218.175 84.412C218.841 84.916 219.174 85.861 219.174 87.247C219.174 88.633 218.724 89.65 217.824 90.298C216.942 90.946 215.646 91.27 213.936 91.27C212.82 91.27 211.506 91.144 209.994 90.892L209.184 90.757L209.292 89.002C211.344 89.308 212.892 89.461 213.936 89.461C214.98 89.461 215.772 89.299 216.312 88.975C216.87 88.633 217.149 88.075 217.149 87.301C217.149 86.509 216.915 85.978 216.447 85.708C215.979 85.42 214.953 85.15 213.369 84.898C211.785 84.646 210.66 84.277 209.994 83.791C209.328 83.305 208.995 82.405 208.995 81.091C208.995 79.777 209.454 78.805 210.372 78.175C211.308 77.545 212.469 77.23 213.855 77.23C214.953 77.23 216.33 77.356 217.986 77.608L218.742 77.743L218.688 79.471C216.69 79.183 215.115 79.039 213.963 79.039ZM230.558 91V72.316H234.311L239.603 88.111L244.895 72.316H248.648V91H246.569V74.53H246.191L240.764 90.325H238.442L233.015 74.53H232.637V91H230.558ZM253.157 84.223C253.157 81.757 253.598 79.975 254.48 78.877C255.362 77.779 256.847 77.23 258.935 77.23C261.041 77.23 262.526 77.779 263.39 78.877C264.272 79.975 264.713 81.757 264.713 84.223C264.713 86.689 264.299 88.48 263.471 89.596C262.643 90.712 261.131 91.27 258.935 91.27C256.739 91.27 255.227 90.712 254.399 89.596C253.571 88.48 253.157 86.689 253.157 84.223ZM255.236 84.196C255.236 86.158 255.47 87.535 255.938 88.327C256.424 89.119 257.423 89.515 258.935 89.515C260.465 89.515 261.464 89.128 261.932 88.354C262.4 87.562 262.634 86.176 262.634 84.196C262.634 82.216 262.373 80.857 261.851 80.119C261.329 79.363 260.357 78.985 258.935 78.985C257.531 78.985 256.559 79.363 256.019 80.119C255.497 80.857 255.236 82.216 255.236 84.196ZM269.016 91V77.5H271.014V79.336C272.58 78.256 274.227 77.545 275.955 77.203V79.255C275.199 79.399 274.407 79.624 273.579 79.93C272.769 80.236 272.148 80.506 271.716 80.74L271.041 81.091V91H269.016ZM288.266 89.326L289.049 89.245L289.103 90.838C287.051 91.126 285.296 91.27 283.838 91.27C281.894 91.27 280.517 90.712 279.707 89.596C278.897 88.462 278.492 86.707 278.492 84.331C278.492 79.597 280.373 77.23 284.135 77.23C285.953 77.23 287.312 77.743 288.212 78.769C289.112 79.777 289.562 81.37 289.562 83.548L289.454 85.087H280.544C280.544 86.581 280.814 87.688 281.354 88.408C281.894 89.128 282.83 89.488 284.162 89.488C285.512 89.488 286.88 89.434 288.266 89.326ZM287.537 83.467C287.537 81.811 287.267 80.641 286.727 79.957C286.205 79.273 285.341 78.931 284.135 78.931C282.947 78.931 282.047 79.291 281.435 80.011C280.841 80.731 280.535 81.883 280.517 83.467H287.537ZM312.288 90.703C310.434 91.081 308.769 91.27 307.293 91.27C305.817 91.27 304.62 91.072 303.702 90.676C302.802 90.262 302.1 89.632 301.596 88.786C301.11 87.922 300.768 86.941 300.57 85.843C300.39 84.727 300.3 83.341 300.3 81.685C300.3 80.029 300.39 78.643 300.57 77.527C300.768 76.393 301.11 75.394 301.596 74.53C302.1 73.666 302.802 73.036 303.702 72.64C304.602 72.244 305.772 72.046 307.212 72.046C308.652 72.046 310.344 72.244 312.288 72.64L312.207 74.395C310.389 74.071 308.769 73.909 307.347 73.909C305.367 73.909 304.053 74.503 303.405 75.691C302.775 76.861 302.46 78.868 302.46 81.712C302.46 83.134 302.514 84.277 302.622 85.141C302.748 86.005 302.982 86.788 303.324 87.49C303.666 88.174 304.161 88.669 304.809 88.975C305.475 89.263 306.438 89.407 307.698 89.407C308.976 89.407 310.479 89.245 312.207 88.921L312.288 90.703ZM325.868 81.577V88.489C325.922 89.155 326.444 89.551 327.434 89.677L327.353 91.27C325.931 91.27 324.86 90.91 324.14 90.19C322.52 90.91 320.9 91.27 319.28 91.27C318.038 91.27 317.093 90.919 316.445 90.217C315.797 89.515 315.473 88.507 315.473 87.193C315.473 85.879 315.806 84.916 316.472 84.304C317.138 83.674 318.182 83.287 319.604 83.143L323.843 82.738V81.577C323.843 80.659 323.645 80.002 323.249 79.606C322.853 79.21 322.313 79.012 321.629 79.012C320.189 79.012 318.695 79.102 317.147 79.282L316.31 79.363L316.229 77.824C318.209 77.428 319.964 77.23 321.494 77.23C323.024 77.23 324.131 77.581 324.815 78.283C325.517 78.985 325.868 80.083 325.868 81.577ZM317.552 87.085C317.552 88.741 318.236 89.569 319.604 89.569C320.828 89.569 322.034 89.362 323.222 88.948L323.843 88.732V84.277L319.847 84.655C319.037 84.727 318.452 84.961 318.092 85.357C317.732 85.753 317.552 86.329 317.552 87.085ZM330.864 91V77.5H332.862V79.336C334.428 78.256 336.075 77.545 337.803 77.203V79.255C337.047 79.399 336.255 79.624 335.427 79.93C334.617 80.236 333.996 80.506 333.564 80.74L332.889 81.091V91H330.864ZM347.165 77.23C348.983 77.23 350.252 77.752 350.972 78.796C351.71 79.822 352.079 81.631 352.079 84.223C352.079 86.815 351.62 88.642 350.702 89.704C349.802 90.748 348.137 91.27 345.707 91.27C344.951 91.27 343.7 91.198 341.954 91.054L341.198 90.973V71.614H343.196V78.175C344.564 77.545 345.887 77.23 347.165 77.23ZM345.68 89.461C347.444 89.461 348.605 89.065 349.163 88.273C349.739 87.463 350.027 86.104 350.027 84.196C350.027 82.288 349.802 80.956 349.352 80.2C348.902 79.426 348.101 79.039 346.949 79.039C345.905 79.039 344.834 79.237 343.736 79.633L343.196 79.822V89.326C344.366 89.416 345.194 89.461 345.68 89.461ZM355.816 84.223C355.816 81.757 356.257 79.975 357.139 78.877C358.021 77.779 359.506 77.23 361.594 77.23C363.7 77.23 365.185 77.779 366.049 78.877C366.931 79.975 367.372 81.757 367.372 84.223C367.372 86.689 366.958 88.48 366.13 89.596C365.302 90.712 363.79 91.27 361.594 91.27C359.398 91.27 357.886 90.712 357.058 89.596C356.23 88.48 355.816 86.689 355.816 84.223ZM357.895 84.196C357.895 86.158 358.129 87.535 358.597 88.327C359.083 89.119 360.082 89.515 361.594 89.515C363.124 89.515 364.123 89.128 364.591 88.354C365.059 87.562 365.293 86.176 365.293 84.196C365.293 82.216 365.032 80.857 364.51 80.119C363.988 79.363 363.016 78.985 361.594 78.985C360.19 78.985 359.218 79.363 358.678 80.119C358.156 80.857 357.895 82.216 357.895 84.196ZM373.699 91H371.674V77.5H373.672V78.445C375.13 77.635 376.525 77.23 377.857 77.23C379.657 77.23 380.863 77.716 381.475 78.688C382.105 79.66 382.42 81.388 382.42 83.872V91H380.422V83.926C380.422 82.054 380.233 80.776 379.855 80.092C379.495 79.39 378.712 79.039 377.506 79.039C376.93 79.039 376.318 79.129 375.67 79.309C375.04 79.471 374.554 79.633 374.212 79.795L373.699 80.038V91ZM394.46 91V72.316H405.827V74.152H396.539V80.605H404.207V82.414H396.539V89.164H405.827V91H394.46ZM412.058 91H410.033V77.5H412.031V78.445C413.381 77.635 414.695 77.23 415.973 77.23C417.647 77.23 418.817 77.689 419.483 78.607C420.077 78.247 420.842 77.932 421.778 77.662C422.732 77.374 423.569 77.23 424.289 77.23C426.089 77.23 427.295 77.716 427.907 78.688C428.537 79.642 428.852 81.37 428.852 83.872V91H426.827V83.926C426.827 82.054 426.647 80.776 426.287 80.092C425.927 79.39 425.162 79.039 423.992 79.039C423.398 79.039 422.786 79.129 422.156 79.309C421.526 79.471 421.04 79.633 420.698 79.795L420.185 80.038C420.419 80.632 420.536 81.946 420.536 83.98V91H418.511V84.034C418.511 82.09 418.331 80.776 417.971 80.092C417.629 79.39 416.864 79.039 415.676 79.039C415.1 79.039 414.506 79.129 413.894 79.309C413.3 79.471 412.841 79.633 412.517 79.795L412.058 80.038V91ZM433.603 91V77.5H435.628V91H433.603ZM433.603 74.449V72.1H435.628V74.449H433.603ZM444.748 79.039C442.786 79.039 441.805 79.723 441.805 81.091C441.805 81.721 442.03 82.171 442.48 82.441C442.93 82.693 443.956 82.963 445.558 83.251C447.16 83.521 448.294 83.908 448.96 84.412C449.626 84.916 449.959 85.861 449.959 87.247C449.959 88.633 449.509 89.65 448.609 90.298C447.727 90.946 446.431 91.27 444.721 91.27C443.605 91.27 442.291 91.144 440.779 90.892L439.969 90.757L440.077 89.002C442.129 89.308 443.677 89.461 444.721 89.461C445.765 89.461 446.557 89.299 447.097 88.975C447.655 88.633 447.934 88.075 447.934 87.301C447.934 86.509 447.7 85.978 447.232 85.708C446.764 85.42 445.738 85.15 444.154 84.898C442.57 84.646 441.445 84.277 440.779 83.791C440.113 83.305 439.78 82.405 439.78 81.091C439.78 79.777 440.239 78.805 441.157 78.175C442.093 77.545 443.254 77.23 444.64 77.23C445.738 77.23 447.115 77.356 448.771 77.608L449.527 77.743L449.473 79.471C447.475 79.183 445.9 79.039 444.748 79.039ZM458.299 79.039C456.337 79.039 455.356 79.723 455.356 81.091C455.356 81.721 455.581 82.171 456.031 82.441C456.481 82.693 457.507 82.963 459.109 83.251C460.711 83.521 461.845 83.908 462.511 84.412C463.177 84.916 463.51 85.861 463.51 87.247C463.51 88.633 463.06 89.65 462.16 90.298C461.278 90.946 459.982 91.27 458.272 91.27C457.156 91.27 455.842 91.144 454.33 90.892L453.52 90.757L453.628 89.002C455.68 89.308 457.228 89.461 458.272 89.461C459.316 89.461 460.108 89.299 460.648 88.975C461.206 88.633 461.485 88.075 461.485 87.301C461.485 86.509 461.251 85.978 460.783 85.708C460.315 85.42 459.289 85.15 457.705 84.898C456.121 84.646 454.996 84.277 454.33 83.791C453.664 83.305 453.331 82.405 453.331 81.091C453.331 79.777 453.79 78.805 454.708 78.175C455.644 77.545 456.805 77.23 458.191 77.23C459.289 77.23 460.666 77.356 462.322 77.608L463.078 77.743L463.024 79.471C461.026 79.183 459.451 79.039 458.299 79.039ZM467.611 91V77.5H469.636V91H467.611ZM467.611 74.449V72.1H469.636V74.449H467.611ZM473.923 84.223C473.923 81.757 474.364 79.975 475.246 78.877C476.128 77.779 477.613 77.23 479.701 77.23C481.807 77.23 483.292 77.779 484.156 78.877C485.038 79.975 485.479 81.757 485.479 84.223C485.479 86.689 485.065 88.48 484.237 89.596C483.409 90.712 481.897 91.27 479.701 91.27C477.505 91.27 475.993 90.712 475.165 89.596C474.337 88.48 473.923 86.689 473.923 84.223ZM476.002 84.196C476.002 86.158 476.236 87.535 476.704 88.327C477.19 89.119 478.189 89.515 479.701 89.515C481.231 89.515 482.23 89.128 482.698 88.354C483.166 87.562 483.4 86.176 483.4 84.196C483.4 82.216 483.139 80.857 482.617 80.119C482.095 79.363 481.123 78.985 479.701 78.985C478.297 78.985 477.325 79.363 476.785 80.119C476.263 80.857 476.002 82.216 476.002 84.196ZM491.807 91H489.782V77.5H491.78V78.445C493.238 77.635 494.633 77.23 495.965 77.23C497.765 77.23 498.971 77.716 499.583 78.688C500.213 79.66 500.528 81.388 500.528 83.872V91H498.53V83.926C498.53 82.054 498.341 80.776 497.963 80.092C497.603 79.39 496.82 79.039 495.614 79.039C495.038 79.039 494.426 79.129 493.778 79.309C493.148 79.471 492.662 79.633 492.32 79.795L491.807 80.038V91Z" fill="#C7F001"/>
<defs>
<clipPath id="clip0_16_26">
<rect width="95" height="95" fill="white" transform="translate(43 138)"/>
</clipPath>
<clipPath id="clip1_16_26">
<rect width="95" height="95" fill="white" transform="translate(489 138)"/>
</clipPath>
<clipPath id="clip2_16_26">
<rect width="95" height="95" fill="white" transform="translate(202 138)"/>
</clipPath>
<clipPath id="clip3_16_26">
<rect width="60.3646" height="52.5728" fill="white" transform="translate(361.812 160.136)"/>
</clipPath>
</defs>
</svg>
