<svg width="468" height="316" viewBox="0 0 468 316" fill="none" xmlns="http://www.w3.org/2000/svg">
<rect width="467.113" height="316" rx="20" fill="#1A1A1A"/>
<path d="M181.554 33.3374H183.568L177.672 50H174.987L169.03 33.3374H171.032L175.475 45.9229L175.915 47.2046C176.077 47.701 176.212 48.1283 176.317 48.4863H176.366C176.61 47.6644 176.883 46.818 177.184 45.9473L181.554 33.3374ZM194.078 46.4722H195.823L195.835 46.8994C195.835 48.112 195.465 48.9624 194.725 49.4507C193.992 49.9308 192.702 50.1709 190.855 50.1709C188.707 50.1709 187.295 49.7803 186.619 48.999C185.952 48.2096 185.618 46.5576 185.618 44.043C185.618 41.7155 185.956 40.153 186.631 39.3555C187.307 38.5579 188.629 38.1592 190.599 38.1592C192.747 38.1592 194.155 38.505 194.822 39.1968C195.49 39.8885 195.823 41.3452 195.823 43.5669V44.4824H187.425C187.425 46.3216 187.62 47.4935 188.011 47.998C188.409 48.5026 189.333 48.7549 190.782 48.7549C192.157 48.7549 193.048 48.6369 193.455 48.4009C193.87 48.1567 194.078 47.6359 194.078 46.8384V46.4722ZM194.078 43.1519L194.065 42.6025C194.065 41.3411 193.858 40.5233 193.443 40.1489C193.028 39.7664 192.133 39.5752 190.757 39.5752C189.374 39.5752 188.475 39.799 188.06 40.2466C187.653 40.686 187.449 41.6545 187.449 43.1519H194.078ZM201.242 33.3374V50H199.533V33.3374H201.242ZM211.434 38.3301V39.7461H206.942V46.8872C206.942 48.1323 207.495 48.7549 208.602 48.7549C209.701 48.7549 210.25 48.1974 210.25 47.0825L210.262 46.5088L210.287 45.8618H211.874L211.886 46.7285C211.886 49.0234 210.795 50.1709 208.614 50.1709C206.36 50.1709 205.233 49.2147 205.233 47.3022V46.8872V39.7461H203.622V38.3301H205.233V35.5225H206.942V38.3301H211.434ZM223.921 38.3301V50H222.212L222.334 48.4741L222.297 48.4375C221.703 49.5931 220.434 50.1709 218.489 50.1709C215.763 50.1709 214.399 48.8118 214.399 46.0938V38.3301H216.108V46.0938C216.108 47.1517 216.283 47.8597 216.633 48.2178C216.983 48.5758 217.671 48.7549 218.696 48.7549C220.039 48.7549 220.959 48.4904 221.455 47.9614C221.96 47.4243 222.212 46.4437 222.212 45.0195V38.3301H223.921ZM228.546 50V39.7461H226.764V38.3301H228.546V36.5967C228.546 34.3099 229.722 33.1665 232.074 33.1665C232.424 33.1665 232.835 33.195 233.307 33.252V34.668C232.754 34.611 232.351 34.5825 232.099 34.5825C230.87 34.5825 230.255 35.201 230.255 36.438V38.3301H233.307V39.7461H230.255V50H228.546ZM236.187 50V39.7461H234.405V38.3301H236.187V36.5967C236.187 34.3099 237.363 33.1665 239.715 33.1665C240.065 33.1665 240.476 33.195 240.948 33.252V34.668C240.394 34.611 239.992 34.5825 239.739 34.5825C238.51 34.5825 237.896 35.201 237.896 36.438V38.3301H240.948V39.7461H237.896V50H236.187ZM274.039 33.3374L268.79 50H265.934L262.43 38.0005L261.991 36.499C261.966 36.4176 261.897 36.1694 261.783 35.7544L261.563 34.9976H261.527L261.319 35.7544L261.1 36.5112L260.648 38.0249L257.083 50H254.276L249.161 33.3374H251.09L254.679 45.3125L255.167 46.936C255.208 47.0662 255.289 47.3348 255.411 47.7417L255.643 48.5596H255.68L255.912 47.7417L256.144 46.936L256.62 45.3247L260.16 33.3374H262.943L266.458 45.3369L266.935 46.936L267.154 47.7539L267.386 48.5596H267.423L267.667 47.7417L267.911 46.9238L268.412 45.2881L272.074 33.3374H274.039ZM278.384 41.6016H276.687C276.687 40.2425 276.992 39.3311 277.603 38.8672C278.221 38.3952 279.425 38.1592 281.216 38.1592C283.161 38.1592 284.475 38.4481 285.159 39.0259C285.842 39.5955 286.184 40.686 286.184 42.2974V50H284.475L284.609 48.7427L284.573 48.7305C283.922 49.6908 282.599 50.1709 280.605 50.1709C277.659 50.1709 276.186 48.9868 276.186 46.6187C276.186 45.2108 276.516 44.2383 277.175 43.7012C277.834 43.1641 279.027 42.8955 280.752 42.8955C282.803 42.8955 284.032 43.2983 284.438 44.104L284.475 44.0918V42.6758C284.475 41.3411 284.292 40.4785 283.926 40.0879C283.56 39.6891 282.758 39.4897 281.521 39.4897C279.421 39.4897 278.372 40.0798 278.372 41.2598C278.372 41.3167 278.376 41.4307 278.384 41.6016ZM281.13 44.2261C279.82 44.2261 278.966 44.3644 278.567 44.6411C278.176 44.9178 277.981 45.5119 277.981 46.4233C277.981 47.3674 278.176 47.994 278.567 48.3032C278.957 48.6043 279.751 48.7549 280.947 48.7549C283.356 48.7549 284.561 48.0225 284.561 46.5576C284.561 45.638 284.325 45.0195 283.853 44.7021C283.389 44.3848 282.481 44.2261 281.13 44.2261ZM298.634 38.3301L295.326 50.6714C294.862 52.4129 294.346 53.6092 293.776 54.2603C293.214 54.9113 292.409 55.2368 291.359 55.2368C291.147 55.2368 290.875 55.2083 290.541 55.1514V53.7354C290.777 53.7842 290.976 53.8127 291.139 53.8208C292.059 53.8696 292.742 53.125 293.19 51.5869L293.52 50.4395C293.528 50.3988 293.564 50.2523 293.629 50H292.982L288.759 38.3301H290.578L292.372 43.5303L293.275 46.1182L293.715 47.4243L294.166 48.7183H294.215L294.533 47.4243L294.838 46.1182L295.497 43.5303L296.815 38.3301H298.634Z" fill="white"/>
<g clip-path="url(#clip0_25_46)">
<path d="M117.979 86C86.9544 86 61.8035 111.744 61.8035 143.5C61.8035 175.256 86.9544 201 117.979 201C149.005 201 174.155 175.256 174.155 143.5C174.155 111.744 149.005 86 117.979 86ZM100.162 98.9992C100.403 99.1465 100.761 99.3534 101.221 99.5856C101.684 99.8125 102.249 100.066 102.913 100.279C103.575 100.494 104.332 100.671 105.166 100.774C105.584 100.818 106.017 100.865 106.471 100.87C106.696 100.879 106.928 100.876 107.16 100.879C107.396 100.871 107.632 100.871 107.875 100.855C108.84 100.813 109.864 100.688 110.93 100.525C111.461 100.44 112.005 100.348 112.558 100.249C113.112 100.144 113.675 100.038 114.241 99.9319C115.379 99.7103 116.548 99.4834 117.736 99.2858C118.923 99.0881 120.128 98.9236 121.333 98.8227C121.934 98.7697 122.535 98.7378 123.132 98.7246C123.729 98.7139 124.32 98.71 124.904 98.7471C126.069 98.7975 127.199 98.9581 128.25 99.1876C129.303 99.4211 130.274 99.7475 131.137 100.115C132 100.485 132.752 100.899 133.388 101.305C133.703 101.516 133.997 101.707 134.255 101.909C134.519 102.1 134.748 102.292 134.954 102.465C135.161 102.633 135.338 102.804 135.491 102.944C135.646 103.083 135.767 103.21 135.868 103.312C136.066 103.519 136.172 103.629 136.172 103.629C136.172 103.629 136.035 103.564 135.777 103.444C135.522 103.316 135.145 103.148 134.672 102.94C134.193 102.735 133.611 102.502 132.94 102.272C132.266 102.048 131.504 101.825 130.665 101.647C130.246 101.557 129.81 101.476 129.355 101.411C129.128 101.377 128.896 101.353 128.662 101.32C128.427 101.296 128.189 101.271 127.947 101.253C126.977 101.18 125.955 101.16 124.892 101.21C124.76 101.216 124.626 101.223 124.491 101.229C124.358 101.239 124.223 101.248 124.087 101.256C123.817 101.271 123.544 101.296 123.27 101.32C122.996 101.347 122.72 101.373 122.442 101.409C122.163 101.44 121.885 101.474 121.604 101.507C120.48 101.655 119.331 101.841 118.173 102.035C117.014 102.227 115.843 102.429 114.672 102.599C114.379 102.641 114.086 102.682 113.795 102.725C113.502 102.762 113.211 102.796 112.919 102.828C112.336 102.892 111.758 102.954 111.18 102.983C110.029 103.056 108.897 103.055 107.82 102.953C106.744 102.856 105.727 102.641 104.821 102.35C103.915 102.049 103.123 101.666 102.472 101.256C101.82 100.847 101.307 100.419 100.912 100.046C100.717 99.8549 100.543 99.6878 100.407 99.5259C100.267 99.3693 100.148 99.238 100.061 99.1213C99.8849 98.8931 99.7916 98.7723 99.7916 98.7723C99.7916 98.7723 99.9212 98.8506 100.165 98.9992H100.162ZM81.2214 171.246C81.2214 169.467 82.6304 168.026 84.3672 168.026H87.0373V132.677L102.73 140.309V132.677L118.423 140.309V132.677L134.115 140.309H135.79L137.019 106.963H138.709V108.704H140.263V106.963H142.101V108.704H143.655V106.963H145.345L146.574 140.309H148.925V168.026H151.596C153.332 168.026 154.741 169.468 154.741 171.246H81.2214ZM91.6971 151.094H103.162V146.203H91.6971V151.094ZM102.611 146.831V150.841L101.904 147.422L99.8201 146.83H102.611V146.831ZM92.4203 146.546L93.1021 149.846L95.1137 150.416H92.4203V146.546ZM106.835 151.094H118.3V146.203H106.835V151.094ZM117.662 146.831V150.841L116.955 147.422L114.871 146.83H117.662V146.831ZM107.473 146.546L108.154 149.846L110.166 150.416H107.473V146.546ZM121.973 151.094H133.438V146.203H121.973V151.094ZM132.8 146.831V150.841L132.093 147.422L130.009 146.83H132.8V146.831ZM122.609 146.546L123.291 149.846L125.303 150.416H122.609V146.546Z" fill="#C7F001"/>
</g>
<line x1="174.419" y1="142" x2="395.254" y2="142" stroke="#C7F001" stroke-width="2" stroke-linecap="round" stroke-dasharray="7 7"/>
<g clip-path="url(#clip1_25_46)">
<path d="M394.295 183.144C416.232 160.693 416.232 124.293 394.295 101.842C372.358 79.3911 336.792 79.3911 314.856 101.842C292.919 124.293 292.919 160.693 314.856 183.144C336.792 205.595 372.358 205.595 394.295 183.144Z" fill="#1A1A1A"/>
<path d="M354.576 200.986C323.063 200.986 297.423 174.747 297.423 142.493C297.423 110.239 323.063 84 354.576 84C386.089 84 411.731 110.239 411.731 142.493C411.731 174.747 386.091 200.986 354.576 200.986ZM354.576 86.0096C324.144 86.0096 299.387 111.349 299.387 142.493C299.387 173.637 324.144 198.976 354.576 198.976C385.009 198.976 409.768 173.637 409.768 142.493C409.768 111.349 385.007 86.0096 354.576 86.0096Z" fill="#C7F001"/>
<mask id="mask0_25_46" style="mask-type:luminance" maskUnits="userSpaceOnUse" x="298" y="85" width="113" height="115">
<path d="M394.295 183.144C416.232 160.693 416.232 124.293 394.295 101.842C372.358 79.3911 336.792 79.3911 314.856 101.842C292.919 124.293 292.919 160.693 314.856 183.144C336.792 205.595 372.358 205.595 394.295 183.144Z" fill="white"/>
</mask>
<g mask="url(#mask0_25_46)">
<path d="M379.855 129.888C380.861 115.823 370.537 103.586 356.794 102.556C343.052 101.526 331.095 112.092 330.089 126.157C329.082 140.221 339.406 152.458 353.149 153.489C366.891 154.519 378.848 143.953 379.855 129.888Z" fill="#C7F001"/>
<path d="M354.97 151.588C337.656 151.588 323.619 165.955 323.619 183.675V201H386.322V183.675C386.322 165.955 372.284 151.588 354.97 151.588Z" fill="#C7F001"/>
</g>
</g>
<path d="M70.5371 214.67V228H69.0332V217.336V216.535L69.043 216.135L69.0527 215.734H69.0137L68.8965 216.047C68.8379 216.203 68.7988 216.304 68.7793 216.35L68.5254 216.975L63.9844 228H62.4805L57.9297 217.102L57.666 216.486L57.5488 216.174C57.5163 216.102 57.4772 216.001 57.4316 215.871H57.3926L57.4023 216.232L57.4121 216.604V217.336V228H55.9082V214.67H58.5156L62.0703 223.293L62.6367 224.689L62.9199 225.383L63.1934 226.076H63.2324L63.5059 225.383C63.6426 225.051 63.7337 224.82 63.7793 224.689L64.3555 223.303L67.8906 214.67H70.5371ZM75.4336 221.281H74.0762C74.0762 220.194 74.3203 219.465 74.8086 219.094C75.3034 218.716 76.2669 218.527 77.6992 218.527C79.2552 218.527 80.3066 218.758 80.8535 219.221C81.4004 219.676 81.6738 220.549 81.6738 221.838V228H80.3066L80.4141 226.994L80.3848 226.984C79.8639 227.753 78.806 228.137 77.2109 228.137C74.8542 228.137 73.6758 227.189 73.6758 225.295C73.6758 224.169 73.9395 223.391 74.4668 222.961C74.9941 222.531 75.9479 222.316 77.3281 222.316C78.9688 222.316 79.9518 222.639 80.2773 223.283L80.3066 223.273V222.141C80.3066 221.073 80.1602 220.383 79.8672 220.07C79.5742 219.751 78.9329 219.592 77.9434 219.592C76.2637 219.592 75.4238 220.064 75.4238 221.008C75.4238 221.053 75.4271 221.145 75.4336 221.281ZM77.6309 223.381C76.5827 223.381 75.8991 223.492 75.5801 223.713C75.2676 223.934 75.1113 224.41 75.1113 225.139C75.1113 225.894 75.2676 226.395 75.5801 226.643C75.8926 226.883 76.5273 227.004 77.4844 227.004C79.4115 227.004 80.375 226.418 80.375 225.246C80.375 224.51 80.1862 224.016 79.8086 223.762C79.4375 223.508 78.7116 223.381 77.6309 223.381ZM85.2031 218.664H86.5215L86.4824 219.934L86.5215 219.963C86.9382 219.006 87.9733 218.527 89.627 218.527C90.9616 218.527 91.8633 218.762 92.332 219.23C92.8073 219.699 93.0449 220.598 93.0449 221.926V228H91.6777V222.043V221.691C91.6777 220.891 91.5247 220.354 91.2188 220.08C90.9128 219.8 90.3236 219.66 89.4512 219.66C87.5306 219.66 86.5703 220.568 86.5703 222.385V228H85.2031V218.664ZM104.133 218.664V228H102.766L102.863 226.779L102.834 226.75C102.359 227.674 101.343 228.137 99.7871 228.137C97.6061 228.137 96.5156 227.049 96.5156 224.875V218.664H97.8828V224.875C97.8828 225.721 98.0228 226.288 98.3027 226.574C98.5827 226.861 99.1328 227.004 99.9531 227.004C101.027 227.004 101.763 226.792 102.16 226.369C102.564 225.939 102.766 225.155 102.766 224.016V218.664H104.133ZM108.033 228V219.797H106.607V218.664H108.033V217.277C108.033 215.448 108.974 214.533 110.855 214.533C111.135 214.533 111.464 214.556 111.842 214.602V215.734C111.399 215.689 111.077 215.666 110.875 215.666C109.892 215.666 109.4 216.161 109.4 217.15V218.664H111.842V219.797H109.4V228H108.033ZM115.41 221.281H114.053C114.053 220.194 114.297 219.465 114.785 219.094C115.28 218.716 116.243 218.527 117.676 218.527C119.232 218.527 120.283 218.758 120.83 219.221C121.377 219.676 121.65 220.549 121.65 221.838V228H120.283L120.391 226.994L120.361 226.984C119.84 227.753 118.783 228.137 117.188 228.137C114.831 228.137 113.652 227.189 113.652 225.295C113.652 224.169 113.916 223.391 114.443 222.961C114.971 222.531 115.924 222.316 117.305 222.316C118.945 222.316 119.928 222.639 120.254 223.283L120.283 223.273V222.141C120.283 221.073 120.137 220.383 119.844 220.07C119.551 219.751 118.91 219.592 117.92 219.592C116.24 219.592 115.4 220.064 115.4 221.008C115.4 221.053 115.404 221.145 115.41 221.281ZM117.607 223.381C116.559 223.381 115.876 223.492 115.557 223.713C115.244 223.934 115.088 224.41 115.088 225.139C115.088 225.894 115.244 226.395 115.557 226.643C115.869 226.883 116.504 227.004 117.461 227.004C119.388 227.004 120.352 226.418 120.352 225.246C120.352 224.51 120.163 224.016 119.785 223.762C119.414 223.508 118.688 223.381 117.607 223.381ZM131.596 224.631H132.963L132.973 225.139C132.973 227.137 131.664 228.137 129.047 228.137C127.367 228.137 126.257 227.821 125.717 227.189C125.176 226.558 124.906 225.256 124.906 223.283C124.906 221.434 125.18 220.181 125.727 219.523C126.28 218.859 127.328 218.527 128.871 218.527C130.388 218.527 131.423 218.752 131.977 219.201C132.53 219.644 132.807 220.48 132.807 221.711H131.439V221.467C131.439 220.744 131.26 220.262 130.902 220.021C130.544 219.781 129.831 219.66 128.764 219.66C127.735 219.66 127.074 219.888 126.781 220.344C126.488 220.799 126.342 221.822 126.342 223.41C126.342 224.96 126.508 225.946 126.84 226.369C127.178 226.792 127.963 227.004 129.193 227.004C130.235 227.004 130.896 226.867 131.176 226.594C131.456 226.314 131.596 225.66 131.596 224.631ZM140.838 218.664V219.797H137.244V225.51C137.244 226.506 137.687 227.004 138.572 227.004C139.451 227.004 139.891 226.558 139.891 225.666L139.9 225.207L139.92 224.689H141.189L141.199 225.383C141.199 227.219 140.327 228.137 138.582 228.137C136.779 228.137 135.877 227.372 135.877 225.842V225.51V219.797H134.588V218.664H135.877V216.418H137.244V218.664H140.838ZM151.027 218.664V228H149.66L149.758 226.779L149.729 226.75C149.253 227.674 148.238 228.137 146.682 228.137C144.501 228.137 143.41 227.049 143.41 224.875V218.664H144.777V224.875C144.777 225.721 144.917 226.288 145.197 226.574C145.477 226.861 146.027 227.004 146.848 227.004C147.922 227.004 148.658 226.792 149.055 226.369C149.458 225.939 149.66 225.155 149.66 224.016V218.664H151.027ZM154.703 218.664H156.07L155.934 219.738L155.963 219.768C156.503 218.889 157.395 218.449 158.639 218.449C160.357 218.449 161.217 219.335 161.217 221.105L161.207 221.75H159.859L159.889 221.516C159.908 221.268 159.918 221.102 159.918 221.018C159.918 220.061 159.397 219.582 158.355 219.582C156.832 219.582 156.07 220.523 156.07 222.404V228H154.703V218.664ZM170.029 225.178H171.426L171.436 225.52C171.436 226.49 171.139 227.17 170.547 227.561C169.961 227.945 168.929 228.137 167.451 228.137C165.732 228.137 164.603 227.824 164.062 227.199C163.529 226.568 163.262 225.246 163.262 223.234C163.262 221.372 163.532 220.122 164.072 219.484C164.613 218.846 165.671 218.527 167.246 218.527C168.965 218.527 170.091 218.804 170.625 219.357C171.159 219.911 171.426 221.076 171.426 222.854V223.586H164.707C164.707 225.057 164.863 225.995 165.176 226.398C165.495 226.802 166.234 227.004 167.393 227.004C168.493 227.004 169.206 226.91 169.531 226.721C169.863 226.525 170.029 226.109 170.029 225.471V225.178ZM170.029 222.521L170.02 222.082C170.02 221.073 169.854 220.419 169.521 220.119C169.189 219.813 168.473 219.66 167.373 219.66C166.266 219.66 165.547 219.839 165.215 220.197C164.889 220.549 164.727 221.324 164.727 222.521H170.029ZM174.73 218.664H176.098L175.961 219.738L175.99 219.768C176.531 218.889 177.423 218.449 178.666 218.449C180.385 218.449 181.244 219.335 181.244 221.105L181.234 221.75H179.887L179.916 221.516C179.936 221.268 179.945 221.102 179.945 221.018C179.945 220.061 179.424 219.582 178.383 219.582C176.859 219.582 176.098 220.523 176.098 222.404V228H174.73V218.664Z" fill="white"/>
<path d="M317.738 223.547H319.232V224.055C319.232 225.871 318.923 227.007 318.305 227.463C317.686 227.912 316.13 228.137 313.637 228.137C311.404 228.137 309.984 227.74 309.379 226.945C308.773 226.145 308.471 224.266 308.471 221.311C308.471 218.999 308.539 217.548 308.676 216.955C308.812 216.356 309.203 215.822 309.848 215.354C310.603 214.807 312.234 214.533 314.74 214.533C316.439 214.533 317.582 214.797 318.168 215.324C318.76 215.852 319.057 216.87 319.057 218.381L319.066 218.742H317.572L317.562 218.332C317.562 217.258 317.387 216.568 317.035 216.262C316.69 215.956 315.906 215.803 314.682 215.803C312.533 215.803 311.221 215.982 310.746 216.34C310.271 216.698 310.033 217.691 310.033 219.318C310.033 223.062 310.193 225.256 310.512 225.9C310.831 226.545 311.921 226.867 313.783 226.867C315.554 226.867 316.658 226.727 317.094 226.447C317.536 226.167 317.758 225.464 317.758 224.338L317.738 223.547ZM325.721 218.527C327.446 218.527 328.566 218.827 329.08 219.426C329.594 220.025 329.852 221.327 329.852 223.332C329.852 225.337 329.594 226.639 329.08 227.238C328.566 227.837 327.446 228.137 325.721 228.137C324.002 228.137 322.885 227.837 322.371 227.238C321.857 226.639 321.6 225.337 321.6 223.332C321.6 221.327 321.857 220.025 322.371 219.426C322.885 218.827 324.002 218.527 325.721 218.527ZM325.721 219.66C324.51 219.66 323.758 219.859 323.465 220.256C323.178 220.646 323.035 221.672 323.035 223.332C323.035 224.992 323.178 226.021 323.465 226.418C323.758 226.809 324.51 227.004 325.721 227.004C326.938 227.004 327.69 226.809 327.977 226.418C328.27 226.021 328.416 224.992 328.416 223.332C328.416 221.672 328.27 220.646 327.977 220.256C327.69 219.859 326.938 219.66 325.721 219.66ZM332.98 218.664H334.299L334.26 219.934L334.299 219.963C334.715 219.006 335.751 218.527 337.404 218.527C338.739 218.527 339.641 218.762 340.109 219.23C340.585 219.699 340.822 220.598 340.822 221.926V228H339.455V222.043V221.691C339.455 220.891 339.302 220.354 338.996 220.08C338.69 219.8 338.101 219.66 337.229 219.66C335.308 219.66 334.348 220.568 334.348 222.385V228H332.98V218.664ZM351.529 221.105H350.162C350.162 220.454 350.029 220.051 349.762 219.895C349.501 219.738 348.824 219.66 347.73 219.66C346.715 219.66 346.07 219.745 345.797 219.914C345.523 220.077 345.387 220.474 345.387 221.105C345.387 222.062 345.846 222.564 346.764 222.609L347.867 222.668L349.264 222.736C350.956 222.821 351.803 223.706 351.803 225.393C351.803 226.441 351.523 227.16 350.963 227.551C350.403 227.941 349.378 228.137 347.887 228.137C346.357 228.137 345.302 227.951 344.723 227.58C344.15 227.209 343.863 226.529 343.863 225.539L343.873 225.031H345.289L345.299 225.471C345.299 226.083 345.455 226.493 345.768 226.701C346.08 226.903 346.695 227.004 347.613 227.004C348.74 227.004 349.479 226.896 349.83 226.682C350.188 226.467 350.367 226.018 350.367 225.334C350.367 224.351 349.921 223.859 349.029 223.859C346.952 223.859 345.585 223.684 344.928 223.332C344.277 222.98 343.951 222.251 343.951 221.145C343.951 220.096 344.208 219.4 344.723 219.055C345.243 218.703 346.275 218.527 347.818 218.527C350.292 218.527 351.529 219.273 351.529 220.764V221.105ZM362.383 218.664V228H361.016L361.113 226.779L361.084 226.75C360.609 227.674 359.593 228.137 358.037 228.137C355.856 228.137 354.766 227.049 354.766 224.875V218.664H356.133V224.875C356.133 225.721 356.273 226.288 356.553 226.574C356.833 226.861 357.383 227.004 358.203 227.004C359.277 227.004 360.013 226.792 360.41 226.369C360.814 225.939 361.016 225.155 361.016 224.016V218.664H362.383ZM365.922 218.664H367.289L367.26 220.07L367.289 220.1C367.816 219.051 368.832 218.527 370.336 218.527C371.918 218.527 372.878 219.051 373.217 220.1H373.256C373.842 219.051 374.913 218.527 376.469 218.527C378.669 218.527 379.77 219.65 379.77 221.896V228H378.402V221.77C378.402 220.949 378.256 220.393 377.963 220.1C377.67 219.807 377.117 219.66 376.303 219.66C375.222 219.66 374.49 219.865 374.105 220.275C373.721 220.679 373.529 221.454 373.529 222.6V228H372.162V221.896L372.143 221.467C372.143 220.262 371.456 219.66 370.082 219.66C368.22 219.66 367.289 220.673 367.289 222.697V228H365.922V218.664ZM389.939 225.178H391.336L391.346 225.52C391.346 226.49 391.049 227.17 390.457 227.561C389.871 227.945 388.839 228.137 387.361 228.137C385.643 228.137 384.513 227.824 383.973 227.199C383.439 226.568 383.172 225.246 383.172 223.234C383.172 221.372 383.442 220.122 383.982 219.484C384.523 218.846 385.581 218.527 387.156 218.527C388.875 218.527 390.001 218.804 390.535 219.357C391.069 219.911 391.336 221.076 391.336 222.854V223.586H384.617C384.617 225.057 384.773 225.995 385.086 226.398C385.405 226.802 386.144 227.004 387.303 227.004C388.403 227.004 389.116 226.91 389.441 226.721C389.773 226.525 389.939 226.109 389.939 225.471V225.178ZM389.939 222.521L389.93 222.082C389.93 221.073 389.764 220.419 389.432 220.119C389.1 219.813 388.383 219.66 387.283 219.66C386.176 219.66 385.457 219.839 385.125 220.197C384.799 220.549 384.637 221.324 384.637 222.521H389.939ZM394.641 218.664H396.008L395.871 219.738L395.9 219.768C396.441 218.889 397.333 218.449 398.576 218.449C400.295 218.449 401.154 219.335 401.154 221.105L401.145 221.75H399.797L399.826 221.516C399.846 221.268 399.855 221.102 399.855 221.018C399.855 220.061 399.335 219.582 398.293 219.582C396.77 219.582 396.008 220.523 396.008 222.404V228H394.641V218.664Z" fill="white"/>
<defs>
<clipPath id="clip0_25_46">
<rect width="112.352" height="115" fill="white" transform="translate(61.8035 86)"/>
</clipPath>
<clipPath id="clip1_25_46">
<rect width="114.306" height="117" fill="white" transform="translate(297.423 84)"/>
</clipPath>
</defs>
</svg>
